<mxfile host="app.diagrams.net" agent="Mozilla/5.0 (Macintosh; Intel Mac OS X 10_15_7) AppleWebKit/537.36 (KHTML, like Gecko) Chrome/135.0.0.0 Safari/537.36" version="26.1.1">
  <diagram name="Page-1" id="3s4FarsleDQwA-aP-SVU">
    <mxGraphModel dx="4983" dy="1487" grid="1" gridSize="10" guides="1" tooltips="1" connect="1" arrows="1" fold="1" page="1" pageScale="1" pageWidth="1169" pageHeight="827" math="0" shadow="0">
      <root>
        <mxCell id="0" />
        <mxCell id="1" parent="0" />
        <mxCell id="7n4o7fXow-ZqI2_hz5NC-47" value="" style="rounded=0;whiteSpace=wrap;html=1;rotation=90;" vertex="1" parent="1">
          <mxGeometry x="76" y="-15" width="600" height="670" as="geometry" />
        </mxCell>
        <mxCell id="7n4o7fXow-ZqI2_hz5NC-46" value="" style="rounded=0;whiteSpace=wrap;html=1;rotation=90;" vertex="1" parent="1">
          <mxGeometry x="-602.5" y="2.5" width="600" height="635" as="geometry" />
        </mxCell>
        <mxCell id="7n4o7fXow-ZqI2_hz5NC-45" value="" style="rounded=0;whiteSpace=wrap;html=1;rotation=90;" vertex="1" parent="1">
          <mxGeometry x="-1090" y="200" width="600" height="240" as="geometry" />
        </mxCell>
        <mxCell id="7n4o7fXow-ZqI2_hz5NC-1" value="PostGres DB" style="shape=image;verticalLabelPosition=bottom;verticalAlign=top;imageAspect=0;aspect=fixed;image=data:image/svg+xml,PHN2ZyB4bWxucz0iaHR0cDovL3d3dy53My5vcmcvMjAwMC9zdmciIGlkPSJhc2UiIHZpZXdCb3g9IjQuMDAwMDAxOTA3MzQ4NjMzIDMuOTk5OTk5MDQ2MzI1NjgzNiA0OCA0Ny45OTk5OTYxODUzMDI3MzQiIHdpZHRoPSI0OCIgaGVpZ2h0PSI0Ny45OTk5OTYxODUzMDI3MzQiPjxkZWZzPjxzdHlsZT4uY2xzLTF7ZmlsbDojMGE2ZWQxO30uY2xzLTJ7ZmlsbDojMDUzYjcwO30uY2xzLTN7ZmlsbDojMDc0ZDkyO308L3N0eWxlPjwvZGVmcz48dGl0bGU+YXNlX2NpcmNsZTwvdGl0bGU+PHBhdGggY2xhc3M9ImNscy0xIiBkPSJNMzguOTQzLDIzLjYzMmExMy4yMTEsMTMuMjExLDAsMCwwLTUuMTYyLS44ODIsMTMuMjA2LDEzLjIwNiwwLDAsMC01LjE2MS44ODIsNC4xMzUsNC4xMzUsMCwwLDAtMS41LDEuMDQzLDIuMDg5LDIuMDg5LDAsMCwwLS41NjIsMS40VjM4LjYzMWEyLjAxNywyLjAxNywwLDAsMCwuNTYyLDEuNCw0LjEzNSw0LjEzNSwwLDAsMCwxLjUsMS4wNDNBMTIuNDU3LDEyLjQ1NywwLDAsMCwzMy43ODEsNDJhMTMuMjExLDEzLjIxMSwwLDAsMCw1LjE2Mi0uODgyLDQuMTQ0LDQuMTQ0LDAsMCwwLDEuNS0xLjA0MywyLjE2NSwyLjE2NSwwLDAsMCwuNTYxLTEuNFYyNi4wNzlhMi4wODgsMi4wODgsMCwwLDAtLjU2MS0xLjRBNC4xNDQsNC4xNDQsMCwwLDAsMzguOTQzLDIzLjYzMlpNMzkuNCwzOC42NzFjMCwuNDgyLS4xNTQuNjgyLTEuMTI2LDEuMDQzYTEyLjkxOSwxMi45MTksMCwwLDEtNC40ODkuNjgyLDEyLjkxMywxMi45MTMsMCwwLDEtNC40ODgtLjY4MmMtLjkzNS0uMzYxLTEuMTI2LS42LTEuMTI2LTEuMDQzdi0yLjJBNC43NzgsNC43NzgsMCwwLDAsMzAsMzcuMTg4YTE1LjIsMTUuMiwwLDAsMCwzLjc3Ny40NDEsMTUuNzQ0LDE1Ljc0NCwwLDAsMCwzLjgxNS0uNDQxLDQuMzU5LDQuMzU5LDAsMCwwLDEuOC0uNzIyWm0wLTQuMjExYzAsLjQ4Mi0uMTU0Ljc2Mi0xLjEyNiwxLjEyM2ExMi45MTksMTIuOTE5LDAsMCwxLTQuNDg5LjY4MiwxMi45MTMsMTIuOTEzLDAsMCwxLTQuNDg4LS42ODJjLS45MzUtLjM2MS0xLjEyNi0uNjgxLTEuMTI2LTEuMTIzVjMyLjNBNC44LDQuOCwwLDAsMCwzMCwzMy4yMTdhMTUuMjcsMTUuMjcsMCwwLDAsMy43NzcuNEE5LjQyOSw5LjQyOSwwLDAsMCwzOS40LDMyLjI1NVpNMzguMTA5LDI3LjRhMTEuOTYxLDExLjk2MSwwLDAsMS00LjMyOC42ODIsMTEuOTYxLDExLjk2MSwwLDAsMS00LjMyOC0uNjgyYy0uOTM1LS40LTEuMjg2LS44NDItMS4yODYtMS4zMjMsMC0uODQzLDEuNzI0LTEuODQ1LDUuNjE0LTEuODQ1LDMuOTI4LDAsNS42MTUsMSw1LjYxNSwxLjg0NUMzOS40LDI2LjU2LDM5LjA4MiwyNywzOC4xMDksMjcuNFoiLz48cGF0aCBjbGFzcz0iY2xzLTIiIGQ9Ik0yNC44NCwyNy45OTJIMTcuOTA2YTMuMTQzLDMuMTQzLDAsMCwxLS45NzctNi4xMzRsMS4zNDYtLjQ0My0uMTUzLTEuNDA4QTQuNzMzLDQuNzMzLDAsMCwxLDE5LDE2LjkyNGEzLjgsMy44LDAsMCwxLDIuODE5LTEuMTczQTMuNTM0LDMuNTM0LDAsMCwxLDI1LjIzNSwxOC4xTDI2LDIwLjAyM2wxLjc2Ny0xLjA2NmEyLjI4NywyLjI4NywwLDAsMSwxLjE5Mi0uMzQ1LDIuMzI2LDIuMzI2LDAsMCwxLDIuMjgzLDEuOWwuMDkzLjQ5M2gxLjc0OWMtLjAyNy0uMjU2LS4wNjMtLjUyOC0uMTIyLS44MTdhNC4wNDksNC4wNDksMCwwLDAtNi4xLTIuNzI1QTUuNTE0LDUuNTE0LDAsMCwwLDIxLjc4MiwxNGMtNS45NDUuMTQxLTUuNCw2LjItNS40LDYuMmE0Ljg5Myw0Ljg5MywwLDAsMCwxLjUyNCw5LjU0N0gyNC44NFoiLz48cGF0aCBjbGFzcz0iY2xzLTMiIGQ9Ik0yOCw2QTIyLDIyLDAsMSwxLDYsMjgsMjIuMDI1LDIyLjAyNSwwLDAsMSwyOCw2bTAtMkEyNCwyNCwwLDEsMCw1MiwyOCwyNCwyNCwwLDAsMCwyOCw0WiIvPjwvc3ZnPg==;" vertex="1" parent="1">
          <mxGeometry x="-279" y="480" width="83" height="83" as="geometry" />
        </mxCell>
        <mxCell id="7n4o7fXow-ZqI2_hz5NC-25" style="edgeStyle=orthogonalEdgeStyle;rounded=0;orthogonalLoop=1;jettySize=auto;html=1;" edge="1" parent="1" source="7n4o7fXow-ZqI2_hz5NC-2" target="7n4o7fXow-ZqI2_hz5NC-22">
          <mxGeometry relative="1" as="geometry" />
        </mxCell>
        <mxCell id="7n4o7fXow-ZqI2_hz5NC-38" value="ECC Inbound" style="edgeLabel;html=1;align=center;verticalAlign=middle;resizable=0;points=[];" vertex="1" connectable="0" parent="7n4o7fXow-ZqI2_hz5NC-25">
          <mxGeometry x="0.2091" y="1" relative="1" as="geometry">
            <mxPoint as="offset" />
          </mxGeometry>
        </mxCell>
        <mxCell id="7n4o7fXow-ZqI2_hz5NC-41" style="edgeStyle=orthogonalEdgeStyle;rounded=0;orthogonalLoop=1;jettySize=auto;html=1;entryX=0;entryY=0.5;entryDx=0;entryDy=0;" edge="1" parent="1" source="7n4o7fXow-ZqI2_hz5NC-2" target="7n4o7fXow-ZqI2_hz5NC-26">
          <mxGeometry relative="1" as="geometry" />
        </mxCell>
        <mxCell id="7n4o7fXow-ZqI2_hz5NC-2" value="CPIS/APIM" style="shape=image;verticalLabelPosition=bottom;verticalAlign=top;imageAspect=0;aspect=fixed;image=data:image/svg+xml,PHN2ZyB4bWxucz0iaHR0cDovL3d3dy53My5vcmcvMjAwMC9zdmciIGlkPSJhcGktbWFuYWdlbWVudCIgdmlld0JveD0iNC4wMDAwMDE5MDczNDg2MzMgMy45OTk5OTkwNDYzMjU2ODM2IDQ4IDQ3Ljk5OTk5NjE4NTMwMjczNCIgd2lkdGg9IjQ4IiBoZWlnaHQ9IjQ3Ljk5OTk5NjE4NTMwMjczNCI+PGRlZnM+PHN0eWxlPi5jbHMtMXtmaWxsOiMwNzRkOTI7fS5jbHMtMntmaWxsOiMwNTNiNzA7fS5jbHMtM3tmaWxsOiMwYTZlZDE7fTwvc3R5bGU+PC9kZWZzPjx0aXRsZT5hcGktbWFuYWdlbWVudF9jaXJjbGU8L3RpdGxlPjxwYXRoIGNsYXNzPSJjbHMtMSIgZD0iTTI4LDZBMjIsMjIsMCwxLDEsNiwyOCwyMi4wMjUsMjIuMDI1LDAsMCwxLDI4LDZtMC0yQTI0LDI0LDAsMSwwLDUyLDI4LDI0LDI0LDAsMCwwLDI4LDRaIi8+PHBhdGggY2xhc3M9ImNscy0yIiBkPSJNMjguMjI1LDI5Ljk3OGE4LjM1Miw4LjM1MiwwLDAsMS0xLjUyLS44ODlsLTMuMzg5LDQuNDgyYTQuNDYzLDQuNDYzLDAsMCwwLTEuNjk0LS4zMjhBNC4zNzQsNC4zNzQsMCwxLDAsMjYsMzcuNjE2YTQuMTIsNC4xMiwwLDAsMC0xLjI1Ny0zLjA2MVptLTYuNiwxMC4yNjNhMi42MjUsMi42MjUsMCwxLDEsMi42MjQtMi42MjVBMi41OTEsMi41OTEsMCwwLDEsMjEuNjIyLDQwLjI0MVoiLz48cGF0aCBjbGFzcz0iY2xzLTIiIGQ9Ik0yMC43NDcsMjcuMjNjMC0uMTY0LDAtLjMyOC0uMDU1LS4zODNsMy41LS43MTEtLjAyLS4wNTFjLS4yMzItLjQ2NS0uNC0xLjE5Mi0uNTg0LTEuNjYybC0uMDUyLjAxOS0zLjMzNS43MUE0LjMxNyw0LjMxNywwLDAsMCwxNi4zNzMsMjIuOCw0LjQsNC40LDAsMCwwLDEyLDI3LjIzYTQuMzc0LDQuMzc0LDAsMCwwLDguNzQ3LDBaTTE2LjM3MywyOS44YTIuNTQ1LDIuNTQ1LDAsMCwxLTIuNjI0LTIuNTY5LDIuNjI1LDIuNjI1LDAsMSwxLDUuMjQ5LDBBMi41NDYsMi41NDYsMCwwLDEsMTYuMzczLDI5LjhaIi8+PHBhdGggY2xhc3M9ImNscy0yIiBkPSJNMzUuODksMzMuMjQzaC0uNTQ3TDM0LjUxOCwzMC4yYTguMjgxLDguMjgxLDAsMCwxLTEuNy40MjZsLjgyOSwzLjExM2E0LjM2LDQuMzYsMCwwLDAsMS42OTQsOC4yNTUsNC4zODIsNC4zODIsMCwwLDAsLjU0Ny04Ljc0N1ptMi4zNTEsNC41MzhhMi42NjYsMi42NjYsMCwwLDEtMi43ODksMi40NiwyLjYzLDIuNjMsMCwxLDEsMi43ODktMi40NloiLz48cGF0aCBjbGFzcz0iY2xzLTMiIGQ9Ik0yOC4yMzYsMjkuOTYzYTguMjc3LDguMjc3LDAsMCwwLDMuMzkuNzY1LDguMTMxLDguMTMxLDAsMCwwLDEuMi0uMTA5aDBhOC4zNTQsOC4zNTQsMCwxLDAtOS41NjgtOC4yNTYsOS40NDUsOS40NDUsMCwwLDAsLjI3NCwyLjA3OGwuMDYzLjI1OWE3LjU0LDcuNTQsMCwwLDAsLjU3MywxLjM4NGwuMDIuMDUxYTguMjM0LDguMjM0LDAsMCwwLDIuNTE1LDIuOTUyaDBBOC4zNzUsOC4zNzUsMCwwLDAsMjguMjM2LDI5Ljk2M1ptMS43NS0zLjk5MUgzMy4zMmE2LjgxMiw2LjgxMiwwLDAsMS0xLjY5NCwyLjU3QTYuNSw2LjUsMCwwLDEsMjkuOTg2LDI1Ljk3MlptLS40MzgtMS42OTRhNy4zNDcsNy4zNDcsMCwwLDEtLjIxOC0xLjkxNCw4LjQ0Nyw4LjQ0NywwLDAsMSwuMTY0LTEuN2g0LjMxOWMuMDU0LjYuMTA5LDEuMDk0LjEwOSwxLjdhMTAuNDM5LDEwLjQzOSwwLDAsMS0uMTY0LDEuOTE0Wm0zLjIyNiw0LjY0NmE4LjYxNiw4LjYxNiwwLDAsMCwxLjY0LTIuOTUyaDIuODQyQTYuOTMyLDYuOTMyLDAsMCwxLDMyLjc3NCwyOC45MjRabTUuMy04LjI1NWE1LjMxNyw1LjMxNywwLDAsMSwuMjE4LDEuNyw4LjA4Miw4LjA4MiwwLDAsMS0uMjczLDEuOTE0SDM0LjhhMTAuMzUyLDEwLjM1MiwwLDAsMCwuMTY0LTEuOTE0YzAtLjYtLjA1NC0xLjA5My0uMTA5LTEuN1ptLS43MTEtMS42MzloLTIuOUE3LjM0MSw3LjM0MSwwLDAsMCwzMi43MTksMTUuOCw2LjgxNiw2LjgxNiwwLDAsMSwzNy4zNjYsMTkuMDNabS0zLjk5MSwwSDI5LjkzMWE3LjI2Miw3LjI2MiwwLDAsMSwxLjctMi45QTYuNjY0LDYuNjY0LDAsMCwxLDMzLjM3NSwxOS4wM1pNMzAuNTMyLDE1LjhhOS40LDkuNCwwLDAsMC0xLjc0OSwzLjIyNmgtMi45QTYuOTMzLDYuOTMzLDAsMCwxLDMwLjUzMiwxNS44Wm0tNS4yNDgsOC40NzRhNS40MjgsNS40MjgsMCwwLDEtLjMyOC0xLjkxNCw2LjAyMSw2LjAyMSwwLDAsMSwuMjE5LTEuN2gzLjI4YTguNTIsOC41MiwwLDAsMC0uMTY0LDEuNywxMC40MzksMTAuNDM5LDAsMCwwLC4xNjQsMS45MTRabS43NjYsMS42OTRoMi43ODhhOS42LDkuNiwwLDAsMCwxLjY0LDIuOTUyQTYuODE2LDYuODE2LDAsMCwxLDI2LjA1LDI1Ljk3MloiLz48L3N2Zz4=;" vertex="1" parent="1">
          <mxGeometry x="-610" y="298" width="86" height="86" as="geometry" />
        </mxCell>
        <mxCell id="7n4o7fXow-ZqI2_hz5NC-14" style="edgeStyle=orthogonalEdgeStyle;rounded=0;orthogonalLoop=1;jettySize=auto;html=1;" edge="1" parent="1" source="7n4o7fXow-ZqI2_hz5NC-4" target="7n4o7fXow-ZqI2_hz5NC-1">
          <mxGeometry relative="1" as="geometry" />
        </mxCell>
        <mxCell id="7n4o7fXow-ZqI2_hz5NC-32" style="edgeStyle=orthogonalEdgeStyle;rounded=0;orthogonalLoop=1;jettySize=auto;html=1;" edge="1" parent="1" source="7n4o7fXow-ZqI2_hz5NC-4" target="7n4o7fXow-ZqI2_hz5NC-21">
          <mxGeometry relative="1" as="geometry" />
        </mxCell>
        <mxCell id="7n4o7fXow-ZqI2_hz5NC-4" value="IBAN Application" style="shape=image;verticalLabelPosition=bottom;verticalAlign=top;imageAspect=0;aspect=fixed;image=data:image/svg+xml,PHN2ZyB4bWxucz0iaHR0cDovL3d3dy53My5vcmcvMjAwMC9zdmciIGlkPSJjbG91ZC1mb3VuZHJ5LXJ1bnRpbWUiIHZpZXdCb3g9IjQuMDAwMDAxOTA3MzQ4NjMzIDMuOTk5OTk5MDQ2MzI1NjgzNiA0OCA0Ny45OTk5OTYxODUzMDI3MzQiIHdpZHRoPSI0OCIgaGVpZ2h0PSI0Ny45OTk5OTYxODUzMDI3MzQiPjxkZWZzPjxzdHlsZT4uY2xzLTF7ZmlsbDojMDc0ZDkyO30uY2xzLTJ7ZmlsbDojMDUzYjcwO30uY2xzLTN7ZmlsbDojMGE2ZWQxO308L3N0eWxlPjwvZGVmcz48dGl0bGU+Y2xvdWQtZm91bmRyeS1ydW50aW1lPC90aXRsZT48cGF0aCBjbGFzcz0iY2xzLTEiIGQ9Ik0yOCw2QTIyLDIyLDAsMSwxLDYsMjgsMjIuMDI1LDIyLjAyNSwwLDAsMSwyOCw2bTAtMkEyNCwyNCwwLDEsMCw1MiwyOCwyNCwyNCwwLDAsMCwyOCw0WiIvPjxwYXRoIGNsYXNzPSJjbHMtMiIgZD0iTTE3LjI1LDI4LjE0OGEuODc1Ljg3NSwwLDAsMC0uODc1LS44NzVoLTMuNWEuODc1Ljg3NSwwLDEsMCwwLDEuNzVoMy41QS44NzUuODc1LDAsMCwwLDE3LjI1LDI4LjE0OFoiLz48cGF0aCBjbGFzcz0iY2xzLTIiIGQ9Ik0xNC42MjUsMjMuNzczaDMuNWEuODc1Ljg3NSwwLDAsMCwwLTEuNzVoLTMuNWEuODc1Ljg3NSwwLDEsMCwwLDEuNzVaIi8+PHBhdGggY2xhc3M9ImNscy0yIiBkPSJNMTguMTI1LDMyLjUyM2gtMS43OGEuODc1Ljg3NSwwLDEsMCwwLDEuNzVoMS43OGEuODc1Ljg3NSwwLDAsMCwwLTEuNzVaIi8+PHBhdGggY2xhc3M9ImNscy0zIiBkPSJNMzguNzg3LDI2LjM3NWMtLjAzNCwwLS4wNjcsMC0uMSwwSDM3LjU0OWwtLjQ5Mi0xLjE4OC44MTktLjgyMWExLjM2NCwxLjM2NCwwLDAsMCwuMzctLjk0MywxLjIyNiwxLjIyNiwwLDAsMC0uMzctLjlsLTEuOS0xLjg4NmExLjIyNiwxLjIyNiwwLDAsMC0uOS0uMzcsMS4yNjgsMS4yNjgsMCwwLDAtLjk0My4zN2wtLjgyMS44Mi0xLjE5LS40OTNWMTkuODEzQTEuMjYyLDEuMjYyLDAsMCwwLDMwLjkwNywxOC41YS44MzQuODM0LDAsMCwwLS4xLDBIMjguMTgyYTEuMjYzLDEuMjYzLDAsMCwwLTEuMzEzLDEuMjEyYzAsLjAzMywwLC4wNjcsMCwuMXYxLjE0OGwtMS4xOS40OTMtLjgxOS0uODJhMS4yNzcsMS4yNzcsMCwwLDAtLjk0My0uMzcsMS4yMjYsMS4yMjYsMCwwLDAtLjkuMzdsLTEuODc5LDEuODkxYTEuMjI2LDEuMjI2LDAsMCwwLS4zNy45LDEuMzY3LDEuMzY3LDAsMCwwLC4zNy45NDRsLjgyLjgyLS40OTMsMS4xODNIMjAuMzE0QTEuMjY0LDEuMjY0LDAsMCwwLDE5LDI3LjU4NmEuODY4Ljg2OCwwLDAsMCwwLC4xdjIuNjI1YTEuMywxLjMsMCwwLDAsLjM2OS45MjQsMS4yNDIsMS4yNDIsMCwwLDAsLjk0My4zODhIMjEuNDZsLjQ5NCwxLjE5LS44MjEuODIxYTEuMzM5LDEuMzM5LDAsMCwwLDAsMS44NDZsMS44OTIsMS44ODZhMS4yMjMsMS4yMjMsMCwwLDAsLjkuMzcsMS4yNzksMS4yNzksMCwwLDAsLjk0My0uMzdsLjgxOS0uODYxLDEuMTkuNTI1djEuMTVhMS4yOTEsMS4yOTEsMCwwLDAsLjM2OS45MjIsMS4yNDIsMS4yNDIsMCwwLDAsLjk0LjRoMi42MjVhMS4yNDQsMS4yNDQsMCwwLDAsLjk0My0uMzg5LDEuMywxLjMsMCwwLDAsLjM2OS0uOTIydi0xLjE1bDEuMTktLjUyNS44MjEuODYxYTEuMjY4LDEuMjY4LDAsMCwwLC45NDMuMzcsMS4yMjYsMS4yMjYsMCwwLDAsLjktLjM3bDEuODg3LTEuOWExLjMzOSwxLjMzOSwwLDAsMCwwLTEuODQ2bC0uODE5LS44MjEuNS0xLjE4M0gzOC43YTEuMjQ0LDEuMjQ0LDAsMCwwLC45NDMtLjM4OEExLjI5MywxLjI5MywwLDAsMCw0MCwzMC4zMTNWMjcuNjg4QTEuMjYzLDEuMjYzLDAsMCwwLDM4Ljc4NywyNi4zNzVabS0uNTM4LDMuNUgzNi4zMjRMMzQuOTcsMzMuMjE0bDEuMzQ0LDEuMzQ0LTEuMjUsMS4yNDktMS40MjQtMS41LTMuMjY2LDEuNTE0VjM3Ljc1aC0xLjc1VjM1LjgyNWwtMy4yNTgtMS41MTktMS40MzEsMS41LTEuMjUtMS4yNTEsMS4zNDQtMS4zNDQtMS4yLTMuMzM5SDIwLjc1di0xLjc1aDIuMDgybDEuMi0zLjMzOS0xLjM0Mi0xLjM0NCwxLjI1Ny0xLjI1NiwxLjM0NywxLjM0NiwzLjMzNS0xLjJWMjAuMjVoMS43NXYyLjA3NGwzLjM0MSwxLjIsMS4zNDItMS4zNDIsMS4yNTcsMS4yNTZMMzQuOTg1LDI0LjgybDEuMzM5LDMuMzA1aDEuOTI1WiIvPjxwYXRoIGNsYXNzPSJjbHMtMyIgZD0iTTMzLjUxLDI4LjZsLTUuODY5LTMuMDI1YS42NTguNjU4LDAsMCwwLS4yOTItLjA3NC41MjcuNTI3LDAsMCwwLS4zODQuMTY1LjU3MS41NzEsMCwwLDAtLjE2NC40MTh2NS44NzFhLjUxNS41MTUsMCwwLDAsLjE2NC40LjU3Mi41NzIsMCwwLDAsLjM4NC4xNDUuNjQ0LjY0NCwwLDAsMCwuMjkyLS4wNzNsNS44NjktMi44NDRhLjU2Mi41NjIsMCwwLDAsMC0uOTg0WiIvPjwvc3ZnPg==;" vertex="1" parent="1">
          <mxGeometry x="-280" y="290" width="85" height="85" as="geometry" />
        </mxCell>
        <mxCell id="7n4o7fXow-ZqI2_hz5NC-10" style="edgeStyle=orthogonalEdgeStyle;rounded=0;orthogonalLoop=1;jettySize=auto;html=1;entryX=1;entryY=0.5;entryDx=0;entryDy=0;" edge="1" parent="1" source="7n4o7fXow-ZqI2_hz5NC-5" target="7n4o7fXow-ZqI2_hz5NC-8">
          <mxGeometry relative="1" as="geometry" />
        </mxCell>
        <mxCell id="7n4o7fXow-ZqI2_hz5NC-11" style="edgeStyle=orthogonalEdgeStyle;rounded=0;orthogonalLoop=1;jettySize=auto;html=1;entryX=1;entryY=0.5;entryDx=0;entryDy=0;" edge="1" parent="1" source="7n4o7fXow-ZqI2_hz5NC-5" target="7n4o7fXow-ZqI2_hz5NC-7">
          <mxGeometry relative="1" as="geometry" />
        </mxCell>
        <mxCell id="7n4o7fXow-ZqI2_hz5NC-5" value="Cloud Identity IAS / SSO" style="shape=image;verticalLabelPosition=bottom;verticalAlign=top;imageAspect=0;aspect=fixed;image=data:image/svg+xml,PHN2ZyB4bWxucz0iaHR0cDovL3d3dy53My5vcmcvMjAwMC9zdmciIGlkPSJkYXRhLXByaXZhY3ktaW50ZWdyYXRpb24iIHZpZXdCb3g9IjQuMDAwMDAxOTA3MzQ4NjMzIDMuOTk5OTk5MDQ2MzI1NjgzNiA0OCA0Ny45OTk5OTYxODUzMDI3MzQiIHdpZHRoPSI0OCIgaGVpZ2h0PSI0Ny45OTk5OTYxODUzMDI3MzQiPjxkZWZzPjxzdHlsZT4uY2xzLTF7ZmlsbDojMDc0ZDkyO30uY2xzLTJ7ZmlsbDojMDUzYjcwO30uY2xzLTN7ZmlsbDojMGE2ZWQxO308L3N0eWxlPjwvZGVmcz48cGF0aCBjbGFzcz0iY2xzLTEiIGQ9Ik0yOCw2QTIyLDIyLDAsMSwxLDYsMjgsMjIuMDI1LDIyLjAyNSwwLDAsMSwyOCw2bTAtMkEyNCwyNCwwLDEsMCw1MiwyOCwyNCwyNCwwLDAsMCwyOCw0WiIvPjxwYXRoIGNsYXNzPSJjbHMtMSIgZD0iTTI4LDZBMjIsMjIsMCwxLDEsNiwyOCwyMi4wMjUsMjIuMDI1LDAsMCwxLDI4LDZtMC0yQTI0LDI0LDAsMSwwLDUyLDI4LDI0LDI0LDAsMCwwLDI4LDRaIi8+PHBhdGggY2xhc3M9ImNscy0yIiBkPSJNMjUuNDMzLDMwLjYxNmE3LjI2Myw3LjI2MywwLDAsMS0uNDcyLTEuNTYsMy4wNzcsMy4wNzcsMCwwLDEtMS44MzYuNTY5LDMuMjUsMy4yNSwwLDAsMSwwLTYuNSwzLjAyOSwzLjAyOSwwLDAsMSwxLjYyNS40MjNWMjEuNzc2YTQuOCw0LjgsMCwwLDAtMS42MjUtLjI3Niw0LjY0Nyw0LjY0NywwLDAsMC0zLjQ0NSwxLjQzLDQuODY1LDQuODY1LDAsMCwwLDAsNi44OSw0Ljg4MSw0Ljg4MSwwLDAsMCw1Ljc2OS44NDVDMjUuNDQ5LDMwLjY0OSwyNS40MzMsMzAuNjMyLDI1LjQzMywzMC42MTZabTUuNzM2LDYuMTFjLS4xLS4wNDktLjItLjExNC0uMzA5LS4xNzhhMTQuMTIzLDE0LjEyMywwLDAsMS0xLjkxNy0xLjMxNyw0LjY4LDQuNjgsMCwwLDEsLjY4MiwyLjUxOXYxLjYyNWgtMTNWMzcuNzVhNC43MDgsNC43MDgsMCwwLDEsMS40My0zLjQ0NSw0LjY0Nyw0LjY0NywwLDAsMSwzLjQ0NS0xLjQzaDMuMjVhNC42OTQsNC42OTQsMCwwLDEsMi40MzcuNjM0LDEwLjEsMTAuMSwwLDAsMS0xLjMtMS45Yy0uMDQ4LS4wODEtLjEtLjE3OC0uMTQ2LS4yNzZhNC44OTUsNC44OTUsMCwwLDAtLjk5MS0uMDgxSDIxLjVhNi4yNTIsNi4yNTIsMCwwLDAtMi41LjUsNi42LDYuNiwwLDAsMC0yLjA4LDEuNCw2LjUwOCw2LjUwOCwwLDAsMC0xLjQsMi4wOEE2LjM2LDYuMzYsMCwwLDAsMTUsMzcuNzVWNDFIMzEuMjVWMzcuNzVBNi44NDMsNi44NDMsMCwwLDAsMzEuMTY5LDM2LjcyNloiLz48cGF0aCBjbGFzcz0iY2xzLTMiIGQ9Ik0zMy42ODgsMTcuMDA5bC41MDkuMzY0YTguMjI1LDguMjI1LDAsMCwwLDQuMjMyLDEuMzc5bC45NDQsMCwwLDguMjY3YzAsNC43OTQtNS4xMjgsNy4wNzctNS4zNDUsNy4xNzJsLS4zNDIuMTQ4LS4zNDMtLjE0OEMzMy4xMjgsMzQuMSwyOCwzMS44MTcsMjgsMjcuMDIzVjE4Ljc1NmwuOTQ2LDBhOC4yMjUsOC4yMjUsMCwwLDAsNC4yMzItMS4zNzlsLjUxLS4zNjRtMC0yLjAwOS0uOTQxLjY3My0uNTA5LjM2NWE2LjY0NCw2LjY0NCwwLDAsMS0zLjMxMiwxLjA3NmwtLjkzMywwLTEuNjE4LjAwN3Y5LjljMCw1LjcxNCw1LjY3MSw4LjM4Niw2LjMxNyw4LjY3MmwuMzU2LjE1NC42NC4yNzYuNjM5LS4yNzYuMzQzLS4xNDhjLjY1OS0uMjkyLDYuMzMtMi45NjQsNi4zMy04LjY3OGwwLTguMjY3VjE3LjEyNWwtMS42MTgtLjAwNy0uOTQ0LDBhNi42NDIsNi42NDIsMCwwLDEtMy4zLTEuMDc1bC0uNTExLS4zNjZMMzMuNjg4LDE1WiIvPjxwYXRoIGNsYXNzPSJjbHMtMiIgZD0iTTM0LjIsMjcuMTU1bC41NjksMS4xODZIMzIuNTkybC41NjgtMS4xODZBMS41MTIsMS41MTIsMCwwLDEsMzIuOCwyNi44YS44NzMuODczLDAsMCwxLS4xNDYtLjUuODg5Ljg4OSwwLDAsMSwuMzA4LS43MTUsMS4wMTksMS4wMTksMCwwLDEsMS40MywwLC45NjYuOTY2LDAsMCwxLC4xNjMsMS4yMTlBMS41MTcsMS41MTcsMCwwLDEsMzQuMiwyNy4xNTVaIi8+PHBhdGggY2xhc3M9ImNscy0yIiBkPSJNMzUuMTc1LDIyYTEuNDc4LDEuNDc4LDAsMCwxLC4wMTcuMjI3djIuMDQ4SDMyLjE2OVYyMi4yMzFBMS41NjksMS41NjksMCwwLDEsMzIuMTg1LDIyYS42LjYsMCwwLDEsLjE0Ny0uMzU4LDEuMDg4LDEuMDg4LDAsMCwxLC40NTUtLjI5MiwyLjMxOCwyLjMxOCwwLDAsMSwuODYxLS4xM2guMDY1YTIuMzE4LDIuMzE4LDAsMCwxLC44NjEuMTMsMS4xLDEuMSwwLDAsMSwuNDU1LjI5MkEuNi42LDAsMCwxLDM1LjE3NSwyMloiLz48cGF0aCBjbGFzcz0iY2xzLTIiIGQ9Ik0zOC40MjUsMTguNzU0QTguMjc4LDguMjc4LDAsMCwxLDM0LjIsMTcuMzcybC0uNTItLjM1Ny0uNS4zNTdhOC4yNzgsOC4yNzgsMCwwLDEtNC4yMjUsMS4zODJoLS45NTl2OC4yNzFjMCw0Ljc5NCw1LjEzNSw3LjA2OSw1LjM0Niw3LjE2NmwuMzQxLjE0Ni4zNTgtLjE0NmMuMjExLS4xLDUuMzMtMi4zNzIsNS4zMy03LjE2NlYxOC43NTRabS0xLjE4Niw5LjU4N2EuOTI5LjkyOSwwLDAsMS0uMTYyLjU4NS45NzYuOTc2LDAsMCwxLS4zNDIuMjkzLDEuMDU3LDEuMDU3LDAsMCwxLS41LjEzaC01LjFhMS4wNjEsMS4wNjEsMCwwLDEtLjUtLjEzLjk3My45NzMsMCwwLDEtLjM0MS0uMjkzLjkyMy45MjMsMCwwLDEtLjE2Mi0uNTg1VjI1LjI4NmEuOTA5LjkwOSwwLDAsMSwuMTYyLS41NjkuOTM3LjkzNywwLDAsMSwuMzQxLS4zMjUsMS4wNDksMS4wNDksMCwwLDEsLjUtLjExM2guMDE2VjIyLjIzMWEyLjE3OCwyLjE3OCwwLDAsMSwuMTE0LS43LDEuNDksMS40OSwwLDAsMSwuMzktLjY1LDIuMzksMi4zOSwwLDAsMSwuNzY0LS40ODcsMy4zNjIsMy4zNjIsMCwwLDEsMS4yMzUtLjE3OWguMDY1YTMuMzYyLDMuMzYyLDAsMCwxLDEuMjM1LjE3OSwyLjM5LDIuMzksMCwwLDEsLjc2NC40ODcsMS41LDEuNSwwLDAsMSwuMzkuNjUsMi4xNzYsMi4xNzYsMCwwLDEsLjExMy43djIuMDQ4aC4wMTdhMS4wNDUsMS4wNDUsMCwwLDEsLjUuMTEzLjk0Ljk0LDAsMCwxLC4zNDIuMzI1LjkxNS45MTUsMCwwLDEsLjE2Mi41NjlaIi8+PC9zdmc+;" vertex="1" parent="1">
          <mxGeometry x="540" y="290" width="70" height="70" as="geometry" />
        </mxCell>
        <mxCell id="7n4o7fXow-ZqI2_hz5NC-7" value="SAP Mobile Start" style="shape=image;verticalLabelPosition=bottom;verticalAlign=top;imageAspect=0;aspect=fixed;image=data:image/svg+xml,PHN2ZyB4bWxucz0iaHR0cDovL3d3dy53My5vcmcvMjAwMC9zdmciIGlkPSJhZ2VudHJ5IiB2aWV3Qm94PSIxMi45OTg3ODAyNTA1NDkzMTYgMy45OTk3ODQ3MDgwMjMwNzEzIDMwLjAwMjM0NjAzODgxODM2IDQ4LjAwMDUzNDA1NzYxNzE5IiB3aWR0aD0iMzAuMDAyMzQ2MDM4ODE4MzYiIGhlaWdodD0iNDguMDAwNTM0MDU3NjE3MTkiPjxkZWZzPjxzdHlsZT4uY2xzLTF7ZmlsbDojMDUzYjcwO30uY2xzLTJ7ZmlsbDojMGE2ZWQxO308L3N0eWxlPjwvZGVmcz48dGl0bGU+YWdlbnRyeTwvdGl0bGU+PHBhdGggY2xhc3M9ImNscy0xIiBkPSJNMzcsNGE1Ljc4LDUuNzgsMCwwLDEsNC4yMTksMS43ODFBNS43OCw1Ljc4LDAsMCwxLDQzLDEwVjQ2YTUuNzI5LDUuNzI5LDAsMCwxLTEuNzgxLDQuMjY2QTUuODYsNS44NiwwLDAsMSwzNyw1MkgxOWE1Ljg1MSw1Ljg1MSwwLDAsMS00LjIxOS0xLjczNEE1LjcxOCw1LjcxOCwwLDAsMSwxMyw0NlYxMGE1Ljc2OCw1Ljc2OCwwLDAsMSwxLjc4MS00LjIxOUE1Ljc3LDUuNzcsMCwwLDEsMTksNFptMyw2SDE2VjQzSDQwWk0yOCw0OWEyLjI2LDIuMjYsMCwwLDAsMS41OTQtLjYwOSwyLjEzNCwyLjEzNCwwLDAsMCwuNjU2LTEuNjQxLDIuMjUsMi4yNSwwLDEsMC00LjUsMCwyLjEyMywyLjEyMywwLDAsMCwuNjU2LDEuNjQxQTIuMjUsMi4yNSwwLDAsMCwyOCw0OVoiLz48cGF0aCBjbGFzcz0iY2xzLTIiIGQ9Ik0xOSwzNS4yMzMsMjYuMzg2LDE2aDIuNzQyTDM3LDM1LjIzM0gzNC4xbC0yLjI0NC01LjgyNUgyMy44MTVMMjEuNywzNS4yMzNabTUuNTUtNy45aDYuNTJsLTIuMDA3LTUuMzI2cS0uOTE5LTIuNDI4LTEuMzY1LTMuOTg5YTI0LjQ5MiwyNC40OTIsMCwwLDEtMS4wMzYsMy42NzRaIi8+PC9zdmc+;" vertex="1" parent="1">
          <mxGeometry x="370" y="360" width="30" height="48" as="geometry" />
        </mxCell>
        <mxCell id="7n4o7fXow-ZqI2_hz5NC-8" value="Web App" style="shape=image;verticalLabelPosition=bottom;verticalAlign=top;imageAspect=0;aspect=fixed;image=data:image/svg+xml,PHN2ZyB4bWxucz0iaHR0cDovL3d3dy53My5vcmcvMjAwMC9zdmciIGlkPSJjdXN0b20tZG9tYWluIiB2aWV3Qm94PSIzLjk5MzM0NjQ1MjcxMzAxMjcgNi45OTMzNDY2OTExMzE1OTIgNDguMDA2NjUyODMyMDMxMjUgNDIuMDA2NzAyNDIzMDk1NyIgd2lkdGg9IjQ4LjAwNjY1MjgzMjAzMTI1IiBoZWlnaHQ9IjQyLjAwNjcwMjQyMzA5NTciPjxkZWZzPjxzdHlsZT4uY2xzLTF7ZmlsbDojMDUzYjcwO30uY2xzLTJ7ZmlsbDojMGE2ZWQxO308L3N0eWxlPjwvZGVmcz48dGl0bGU+Y3VzdG9tLWRvbWFpbjwvdGl0bGU+PHJlY3QgY2xhc3M9ImNscy0xIiB4PSIzNCIgeT0iNyIgd2lkdGg9IjEyIiBoZWlnaHQ9IjMiIHJ4PSIwLjc1Ii8+PHJlY3QgY2xhc3M9ImNscy0xIiB4PSIxOSIgeT0iNyIgd2lkdGg9IjEyIiBoZWlnaHQ9IjMiIHJ4PSIwLjc1Ii8+PHBhdGggY2xhc3M9ImNscy0xIiBkPSJNNCw0NnYwYTIuODc3LDIuODc3LDAsMCwwLC4yMzYsMS4xNTcsMy4wMjgsMy4wMjgsMCwwLDAsMS42MDYsMS42MDdBMi44NzUsMi44NzUsMCwwLDAsNyw0OUg0OWEzLjAxMywzLjAxMywwLDAsMCwzLTNWMTZhMy4wMTMsMy4wMTMsMCwwLDAtMy0zSDE2VjcuNzVBLjY2NC42NjQsMCwwLDAsMTUuMjUsN0g0Ljc1QS42NjMuNjYzLDAsMCwwLDQsNy43NVpNNDksMTZsMCwwLDAsMzBMNyw0Niw3LDE2WiIvPjxwYXRoIGNsYXNzPSJjbHMtMiIgZD0iTTM5LjIxNCwyNi43M2ExMi43NDUsMTIuNzQ1LDAsMCwwLTIuMTA3LTMuNTczLDExLjkxNCwxMS45MTQsMCwwLDAtMy4yMS0yLjYyOCwxMi4wNTUsMTIuMDU1LDAsMCwwLTMuOTktMS4zOTNsMCwwYy0uMzE3LS4wNDYtLjYyNC0uMDc4LS45MjEtLjFhMTUuNjkxLDE1LjY5MSwwLDAsMC0xLjksMGMtLjI5NC4wMjYtLjYuMDU4LS45MjIuMTA3YTExLjY2MywxMS42NjMsMCwwLDAtNC4wMjQsMS40LDEyLjQ4MiwxMi40ODIsMCwwLDAtMy4yLDIuNjIyLDEyLjE2MSwxMi4xNjEsMCwwLDAtMi4xNDYsMy41NzlBMTEuNjkxLDExLjY5MSwwLDAsMCwxNiwzMWExMS40NzIsMTEuNDcyLDAsMCwwLC45NTcsNC42NDIsMTIuMjIxLDEyLjIyMSwwLDAsMCw2LjQsNi40QTExLjUsMTEuNSwwLDAsMCwyOCw0M2ExMS42MzgsMTEuNjM4LDAsMCwwLDQuNzA3LS45NTcsMTIuMzg5LDEyLjM4OSwwLDAsMCwzLjgxNS0yLjU4NkExMS45MDYsMTEuOTA2LDAsMCwwLDQwLDMxLDExLjcxOSwxMS43MTksMCwwLDAsMzkuMjE0LDI2LjczWm0tMy4zMTQtMUgzMi40NzdhMTMuMjUxLDEzLjI1MSwwLDAsMC0yLjEwNy0zLjg4NEE4Ljk0MSw4Ljk0MSwwLDAsMSwzNS45LDI1LjczWm0tNC4wMTYsNWExMS43NjUsMTEuNzY1LDAsMCwxLS4xMzIsMS43NzhBMTQuNzgyLDE0Ljc4MiwwLDAsMSwzMS40MjMsMzRoLTYuNzhhMTQuMjUyLDE0LjI1MiwwLDAsMS0uMzI5LTEuNDg5LDExLjUxMSwxMS41MTEsMCwwLDEtLjEzMi0xLjc3OEExMi4xODMsMTIuMTgzLDAsMCwxLDI0LjUxMSwyOGg3LjA0NEExMi4zLDEyLjMsMCwwLDEsMzEuODg0LDMwLjczM1pNMjgsMjEuNjQ5YTcuNDExLDcuNDExLDAsMCwxLDEuNjc5LDEuNzExLDExLjE3MiwxMS4xNzIsMCwwLDEsMS4yODMsMi4zN0gyNS4xQTguNzQxLDguNzQxLDAsMCwxLDI4LDIxLjY0OVptLTIuMy4yYTEzLjE4MiwxMy4xODIsMCwwLDAtMi4xMDcsMy44ODRIMjAuMTY2QTguOTMsOC45MywwLDAsMSwyNS43LDIxLjg0NlpNMTkuMTEzLDM0YTguNjM1LDguNjM1LDAsMCwxLS40MjgtMS4zNTgsOC4yODgsOC4yODgsMCwwLDEsMC0zLjI5MUE4LjU4NCw4LjU4NCwwLDAsMSwxOS4xMTMsMjhoMy45NWExMi4xODMsMTIuMTgzLDAsMCwwLS4zMjksMi43MzNBMTIuODI1LDEyLjgyNSwwLDAsMCwyMy4xMjgsMzRaTTIyLjgsMzguODYzYTEwLjIyMywxMC4yMjMsMCwwLDEtMi42MzMtMi42aDMuNTU1YTEyLjM1NiwxMi4zNTYsMCwwLDAsMi41NjcsNC4wMTZBOC42NjMsOC42NjMsMCwwLDEsMjIuOCwzOC44NjNaTTI4LDM5Ljg4NGE3LjQ2NCw3LjQ2NCwwLDAsMS0xLjQ4MS0xLjUxNEExMC43NDUsMTAuNzQ1LDAsMCwxLDI1LjMsMzYuMjYzaDUuNDY0QTguMDgxLDguMDgxLDAsMCwxLDI4LDM5Ljg4NFptNS4yNjYtMS4wMjFhOC42NjMsOC42NjMsMCwwLDEtMy40ODksMS40MTYsMTIuNDQsMTIuNDQsMCwwLDAsMi41NjgtNC4wMTZIMzUuOUExMC4yNDMsMTAuMjQzLDAsMCwxLDMzLjI2NiwzOC44NjNaTTM2Ljk1MywzNEgzMi45MzdhOC4yNjksOC4yNjksMCwwLDAsLjI2NC0xLjQ4OXEuMDY1LS44NTUuMDY1LTEuNzc4QTEyLjU5LDEyLjU5LDAsMCwwLDMzLDI4aDMuOTVhOC44LDguOCwwLDAsMSwwLDZaIi8+PC9zdmc+;" vertex="1" parent="1">
          <mxGeometry x="352" y="248" width="48" height="42" as="geometry" />
        </mxCell>
        <mxCell id="7n4o7fXow-ZqI2_hz5NC-15" value="SAP BTP" style="shape=image;verticalLabelPosition=bottom;verticalAlign=top;imageAspect=0;aspect=fixed;image=https://digitalmarketplace-sapcpprd.s3.eu-central-1.amazonaws.com/HUUjKa3mwi7E5O-tWW2EXAqFh-jwns0OsiVTB26sz-hhvPuBfwwBINKIksUz1boF.svg;" vertex="1" parent="1">
          <mxGeometry x="-302.5" y="655" width="75" height="75" as="geometry" />
        </mxCell>
        <mxCell id="7n4o7fXow-ZqI2_hz5NC-35" style="edgeStyle=orthogonalEdgeStyle;rounded=0;orthogonalLoop=1;jettySize=auto;html=1;entryX=0.5;entryY=0;entryDx=0;entryDy=0;" edge="1" parent="1" source="7n4o7fXow-ZqI2_hz5NC-16" target="7n4o7fXow-ZqI2_hz5NC-2">
          <mxGeometry relative="1" as="geometry" />
        </mxCell>
        <mxCell id="7n4o7fXow-ZqI2_hz5NC-50" value="Text" style="edgeLabel;html=1;align=center;verticalAlign=middle;resizable=0;points=[];" vertex="1" connectable="0" parent="7n4o7fXow-ZqI2_hz5NC-35">
          <mxGeometry x="-0.8034" relative="1" as="geometry">
            <mxPoint as="offset" />
          </mxGeometry>
        </mxCell>
        <mxCell id="7n4o7fXow-ZqI2_hz5NC-52" value="ECC Outbound" style="edgeLabel;html=1;align=center;verticalAlign=middle;resizable=0;points=[];" vertex="1" connectable="0" parent="7n4o7fXow-ZqI2_hz5NC-35">
          <mxGeometry x="-0.6324" relative="1" as="geometry">
            <mxPoint as="offset" />
          </mxGeometry>
        </mxCell>
        <mxCell id="7n4o7fXow-ZqI2_hz5NC-40" value="" style="edgeStyle=orthogonalEdgeStyle;rounded=0;orthogonalLoop=1;jettySize=auto;html=1;" edge="1" parent="1" source="7n4o7fXow-ZqI2_hz5NC-16" target="7n4o7fXow-ZqI2_hz5NC-22">
          <mxGeometry relative="1" as="geometry" />
        </mxCell>
        <mxCell id="7n4o7fXow-ZqI2_hz5NC-16" value="SAP     ECC" style="shape=image;verticalLabelPosition=bottom;verticalAlign=top;imageAspect=0;aspect=fixed;image=https://digitalmarketplace-sapcpprd.s3.eu-central-1.amazonaws.com/yBzP_cZdSDnKeMsvTJs2DU40hszgnZLcwk9kwY2It3HjIBITLMANAoBlJomI6iHC.svg;" vertex="1" parent="1">
          <mxGeometry x="-870" y="130" width="80" height="80" as="geometry" />
        </mxCell>
        <mxCell id="7n4o7fXow-ZqI2_hz5NC-33" style="edgeStyle=orthogonalEdgeStyle;rounded=0;orthogonalLoop=1;jettySize=auto;html=1;entryX=0;entryY=0.5;entryDx=0;entryDy=0;" edge="1" parent="1">
          <mxGeometry relative="1" as="geometry">
            <mxPoint x="-44" y="332.5" as="sourcePoint" />
            <mxPoint x="354" y="269" as="targetPoint" />
            <Array as="points">
              <mxPoint x="162" y="333" />
              <mxPoint x="162" y="269" />
            </Array>
          </mxGeometry>
        </mxCell>
        <mxCell id="7n4o7fXow-ZqI2_hz5NC-34" style="edgeStyle=orthogonalEdgeStyle;rounded=0;orthogonalLoop=1;jettySize=auto;html=1;entryX=0;entryY=0.5;entryDx=0;entryDy=0;" edge="1" parent="1" source="7n4o7fXow-ZqI2_hz5NC-21" target="7n4o7fXow-ZqI2_hz5NC-7">
          <mxGeometry relative="1" as="geometry" />
        </mxCell>
        <mxCell id="7n4o7fXow-ZqI2_hz5NC-21" value="SAP BTP Work Zone" style="shape=image;verticalLabelPosition=bottom;verticalAlign=top;imageAspect=0;aspect=fixed;image=data:image/svg+xml,PHN2ZyB3aWR0aD0iMTYiIGhlaWdodD0iMTYiIHZpZXdCb3g9IjAgMCAxNiAxNiIgZmlsbD0ibm9uZSIgeG1sbnM9Imh0dHA6Ly93d3cudzMub3JnLzIwMDAvc3ZnIj4KPGcgY2xpcC1wYXRoPSJ1cmwoI2NsaXAwXzM4NjBfMTc3ODcpIj4KPG1hc2sgaWQ9Im1hc2swXzM4NjBfMTc3ODciIHN0eWxlPSJtYXNrLXR5cGU6YWxwaGEiIG1hc2tVbml0cz0idXNlclNwYWNlT25Vc2UiIHg9Ii0yIiB5PSItMiIgd2lkdGg9IjIwIiBoZWlnaHQ9IjIwIj4KPHBhdGggZD0iTTguNDIzMDYgMTEuOTc0MkM4Ljc4NyAxMi45OTkgOS44NTU3MyAxMy41ODIgMTEuMDUzNiAxMy41ODJDMTIuMjUxNSAxMy41ODIgMTMuMjY1NSAxMi43MTIyIDEzLjU1MTcgMTEuOTMwNkwxNS44MTU5IDUuNjkzMTVDMTYuMjY2OCA0LjQ1MTAxIDE1LjYyODEgMy4wNzc1NiAxNC4zODkzIDIuNjI1NDZDMTMuMjUgMi4yMDk2NiAxMS45OTk5IDIuNzE3OTggMTEuNDU1NyAzLjc2ODU2QzExLjM2OTIgMy45NjQ0OCAxMS4yODA1IDQuMjU5MjIgMTEuMzg2NiA0LjU3MzA2TDEyLjUyNTMgNy43MjM3NUMxMi41ODI0IDcuODgxNzIgMTIuNTA4NSA4LjA1NzEzIDEyLjM1NTcgOC4xMjYxOUMxMi4xNjczIDguMjExNCAxMS45NDE0IDguMSAxMS44OTE3IDcuODk4NzhDMTEuNTI4NSA2LjQyODY3IDEwLjMxMjYgNS40OTA2OCA4LjgwOTQyIDYuMDQ0MjhDNy4zMDYyMiA2LjU5Nzg4IDYuOTg5NzQgOC4wMjU2NyA3LjQ0MDY0IDkuMjY3ODFMOC40MjMwNiAxMS45NzQyWiIgZmlsbD0iYmxhY2siLz4KPHBhdGggZD0iTTAuMjMxNTIyIDUuNjgzMTVDLTAuMjE5Mzc0IDQuNDQxMDEgMC40MTkzNTcgMy4wNjc1NSAxLjY1ODE3IDIuNjE1NDVDMi44OTY5OCAyLjE2MzM1IDQuMjY2NzYgMi44MDM4IDQuNzE3NjUgNC4wNDU5NEw2Ljk4MDY4IDEwLjI4MDJDNy40MzE1NyAxMS41MjIzIDYuNzkyODQgMTIuODk1OCA1LjU1NDAzIDEzLjM0NzlDNC4zMTUyMiAxMy44IDIuOTQ1NDQgMTMuMTU5NSAyLjQ5NDU1IDExLjkxNzRMMC4yMzE1MjIgNS42ODMxNVoiIGZpbGw9ImJsYWNrIi8+CjwvbWFzaz4KPGcgbWFzaz0idXJsKCNtYXNrMF8zODYwXzE3Nzg3KSI+CjxnIGZpbHRlcj0idXJsKCNmaWx0ZXIwX2RfMzg2MF8xNzc4NykiPgo8cGF0aCBkPSJNNS40NjQ4OSAtNC4zNDc5NkM4LjgzODM5IC01LjMwNjUgMTIuODI3MSAtMy42NTMgMTUuMjU4NyAwLjcyODI3OEMyMS41MTg3IDkuMTM3NjUgMjcuMTc5OCAxOC45MDM0IDE0LjI4MTMgMjMuNDY3MUMxLjM4Mjg4IDI4LjAzMDcgMS42ODUwMiAxOC42NjkzIC0yLjYxNTgyIDEwLjkyMDFDLTYuOTE2NjYgMy4xNzA4NSAyLjA5MTQgLTMuMzg5NDIgNS40NjQ4OSAtNC4zNDc5NloiIGZpbGw9InVybCgjcGFpbnQwX3JhZGlhbF8zODYwXzE3Nzg3KSIvPgo8L2c+CjxnIGZpbHRlcj0idXJsKCNmaWx0ZXIxX2RfMzg2MF8xNzc4NykiPgo8cGF0aCBkPSJNMTUuNDI4OCAxMS4yMjM3QzE0LjA5MTUgMTQuMDg4NiAxMC4yNjI4IDE3LjU0MDMgNy42NjU0OSAxNy43NzE0QzIuMzM5NSAxOC45MjI4IC01Ljk1MDA5IDEzLjY1MjUgLTUuMjQxMDcgMTAuMDczM0MtNC41MzIwNSA2LjQ5NDEgMi4yMDY0NyA0Ljc0NTYxIDYuODE5NSA0Ljc4NTI0QzExLjQzMjUgNC44MjQ4NyAxNi43NjYyIDguMzU4NzkgMTUuNDI4OCAxMS4yMjM3WiIgZmlsbD0idXJsKCNwYWludDFfcmFkaWFsXzM4NjBfMTc3ODcpIi8+CjwvZz4KPGcgZmlsdGVyPSJ1cmwoI2ZpbHRlcjJfZF8zODYwXzE3Nzg3KSI+CjxwYXRoIGQ9Ik0wLjAzNDk5MjIgOC4xMTE0QzYuMDA3NTQgNi41MzI3IDExLjIxOTUgNi4zMDMxMiAxMS44NDE2IDExLjkwMjFDMTIuMzQ2NCAxNi40NDYxIDUuOTk4OTEgMjAuMTI1MyAxLjQ1NDkxIDIwLjYzMDJDLTMuMDg5MDkgMjEuMTM1IC01LjY4NTE0IDkuNjIzMzcgMC4wMzQ5OTIyIDguMTExNFoiIGZpbGw9InVybCgjcGFpbnQyX3JhZGlhbF8zODYwXzE3Nzg3KSIvPgo8L2c+CjwvZz4KPC9nPgo8ZGVmcz4KPGZpbHRlciBpZD0iZmlsdGVyMF9kXzM4NjBfMTc3ODciIHg9Ii00LjQ5ODUzIiB5PSItNS42NTAxNSIgd2lkdGg9IjI4LjA0MSIgaGVpZ2h0PSIzMS41MDYzIiBmaWx0ZXJVbml0cz0idXNlclNwYWNlT25Vc2UiIGNvbG9yLWludGVycG9sYXRpb24tZmlsdGVycz0ic1JHQiI+CjxmZUZsb29kIGZsb29kLW9wYWNpdHk9IjAiIHJlc3VsdD0iQmFja2dyb3VuZEltYWdlRml4Ii8+CjxmZUNvbG9yTWF0cml4IGluPSJTb3VyY2VBbHBoYSIgdHlwZT0ibWF0cml4IiB2YWx1ZXM9IjAgMCAwIDAgMCAwIDAgMCAwIDAgMCAwIDAgMCAwIDAgMCAwIDEyNyAwIiByZXN1bHQ9ImhhcmRBbHBoYSIvPgo8ZmVPZmZzZXQgZHg9IjAuMzcxMDk0IiBkeT0iMC4wNzQyMTg3Ii8+CjxmZUdhdXNzaWFuQmx1ciBzdGREZXZpYXRpb249IjAuNTU2NjQiLz4KPGZlQ29tcG9zaXRlIGluMj0iaGFyZEFscGhhIiBvcGVyYXRvcj0ib3V0Ii8+CjxmZUNvbG9yTWF0cml4IHR5cGU9Im1hdHJpeCIgdmFsdWVzPSIwIDAgMCAwIDAgMCAwIDAgMCAwIDAgMCAwIDAgMCAwIDAgMCAwLjQgMCIvPgo8ZmVCbGVuZCBtb2RlPSJub3JtYWwiIGluMj0iQmFja2dyb3VuZEltYWdlRml4IiByZXN1bHQ9ImVmZmVjdDFfZHJvcFNoYWRvd18zODYwXzE3Nzg3Ii8+CjxmZUJsZW5kIG1vZGU9Im5vcm1hbCIgaW49IlNvdXJjZUdyYXBoaWMiIGluMj0iZWZmZWN0MV9kcm9wU2hhZG93XzM4NjBfMTc3ODciIHJlc3VsdD0ic2hhcGUiLz4KPC9maWx0ZXI+CjxmaWx0ZXIgaWQ9ImZpbHRlcjFfZF8zODYwXzE3Nzg3IiB4PSItNi4wMjU4OCIgeT0iMy43NDU2MSIgd2lkdGg9IjIzLjE0ODQiIGhlaWdodD0iMTUuMzc0NSIgZmlsdGVyVW5pdHM9InVzZXJTcGFjZU9uVXNlIiBjb2xvci1pbnRlcnBvbGF0aW9uLWZpbHRlcnM9InNSR0IiPgo8ZmVGbG9vZCBmbG9vZC1vcGFjaXR5PSIwIiByZXN1bHQ9IkJhY2tncm91bmRJbWFnZUZpeCIvPgo8ZmVDb2xvck1hdHJpeCBpbj0iU291cmNlQWxwaGEiIHR5cGU9Im1hdHJpeCIgdmFsdWVzPSIwIDAgMCAwIDAgMCAwIDAgMCAwIDAgMCAwIDAgMCAwIDAgMCAxMjcgMCIgcmVzdWx0PSJoYXJkQWxwaGEiLz4KPGZlT2Zmc2V0IGR4PSIwLjM3MTA5NCIgZHk9IjAuMDc0MjE4NyIvPgo8ZmVHYXVzc2lhbkJsdXIgc3RkRGV2aWF0aW9uPSIwLjU1NjY0Ii8+CjxmZUNvbXBvc2l0ZSBpbjI9ImhhcmRBbHBoYSIgb3BlcmF0b3I9Im91dCIvPgo8ZmVDb2xvck1hdHJpeCB0eXBlPSJtYXRyaXgiIHZhbHVlcz0iMCAwIDAgMCAwIDAgMCAwIDAgMCAwIDAgMCAwIDAgMCAwIDAgMC40IDAiLz4KPGZlQmxlbmQgbW9kZT0ibm9ybWFsIiBpbjI9IkJhY2tncm91bmRJbWFnZUZpeCIgcmVzdWx0PSJlZmZlY3QxX2Ryb3BTaGFkb3dfMzg2MF8xNzc4NyIvPgo8ZmVCbGVuZCBtb2RlPSJub3JtYWwiIGluPSJTb3VyY2VHcmFwaGljIiBpbjI9ImVmZmVjdDFfZHJvcFNoYWRvd18zODYwXzE3Nzg3IiByZXN1bHQ9InNoYXBlIi8+CjwvZmlsdGVyPgo8ZmlsdGVyIGlkPSJmaWx0ZXIyX2RfMzg2MF8xNzc4NyIgeD0iLTMuOTg4MjgiIHk9IjYuMTAwNTkiIHdpZHRoPSIxNy4zNDI4IiBoZWlnaHQ9IjE1LjczMzIiIGZpbHRlclVuaXRzPSJ1c2VyU3BhY2VPblVzZSIgY29sb3ItaW50ZXJwb2xhdGlvbi1maWx0ZXJzPSJzUkdCIj4KPGZlRmxvb2QgZmxvb2Qtb3BhY2l0eT0iMCIgcmVzdWx0PSJCYWNrZ3JvdW5kSW1hZ2VGaXgiLz4KPGZlQ29sb3JNYXRyaXggaW49IlNvdXJjZUFscGhhIiB0eXBlPSJtYXRyaXgiIHZhbHVlcz0iMCAwIDAgMCAwIDAgMCAwIDAgMCAwIDAgMCAwIDAgMCAwIDAgMTI3IDAiIHJlc3VsdD0iaGFyZEFscGhhIi8+CjxmZU9mZnNldCBkeD0iMC4zNzEwOTQiIGR5PSIwLjA3NDIxODciLz4KPGZlR2F1c3NpYW5CbHVyIHN0ZERldmlhdGlvbj0iMC41NTY2NCIvPgo8ZmVDb21wb3NpdGUgaW4yPSJoYXJkQWxwaGEiIG9wZXJhdG9yPSJvdXQiLz4KPGZlQ29sb3JNYXRyaXggdHlwZT0ibWF0cml4IiB2YWx1ZXM9IjAgMCAwIDAgMCAwIDAgMCAwIDAgMCAwIDAgMCAwIDAgMCAwIDAuNCAwIi8+CjxmZUJsZW5kIG1vZGU9Im5vcm1hbCIgaW4yPSJCYWNrZ3JvdW5kSW1hZ2VGaXgiIHJlc3VsdD0iZWZmZWN0MV9kcm9wU2hhZG93XzM4NjBfMTc3ODciLz4KPGZlQmxlbmQgbW9kZT0ibm9ybWFsIiBpbj0iU291cmNlR3JhcGhpYyIgaW4yPSJlZmZlY3QxX2Ryb3BTaGFkb3dfMzg2MF8xNzc4NyIgcmVzdWx0PSJzaGFwZSIvPgo8L2ZpbHRlcj4KPHJhZGlhbEdyYWRpZW50IGlkPSJwYWludDBfcmFkaWFsXzM4NjBfMTc3ODciIGN4PSIwIiBjeT0iMCIgcj0iMSIgZ3JhZGllbnRVbml0cz0idXNlclNwYWNlT25Vc2UiIGdyYWRpZW50VHJhbnNmb3JtPSJ0cmFuc2xhdGUoNi4zMDU0OSAxMS42MDY4KSByb3RhdGUoLTc1LjY1MTMpIHNjYWxlKDI2LjQzNCAyNi4wNjg3KSI+CjxzdG9wIHN0b3AtY29sb3I9IiMxMzQ4RkYiLz4KPHN0b3Agb2Zmc2V0PSIxIiBzdG9wLWNvbG9yPSIjMDYyMzhEIi8+CjwvcmFkaWFsR3JhZGllbnQ+CjxyYWRpYWxHcmFkaWVudCBpZD0icGFpbnQxX3JhZGlhbF8zODYwXzE3Nzg3IiBjeD0iMCIgY3k9IjAiIHI9IjEiIGdyYWRpZW50VW5pdHM9InVzZXJTcGFjZU9uVXNlIiBncmFkaWVudFRyYW5zZm9ybT0idHJhbnNsYXRlKC0wLjIzMTA0NiA2LjI5NTExKSByb3RhdGUoMzEuOTgpIHNjYWxlKDI1LjI3MiA0NS42NDMyKSI+CjxzdG9wIHN0b3AtY29sb3I9IiMwMTk1RkYiLz4KPHN0b3Agb2Zmc2V0PSIxIiBzdG9wLWNvbG9yPSIjMTE0N0U5Ii8+CjwvcmFkaWFsR3JhZGllbnQ+CjxyYWRpYWxHcmFkaWVudCBpZD0icGFpbnQyX3JhZGlhbF8zODYwXzE3Nzg3IiBjeD0iMCIgY3k9IjAiIHI9IjEiIGdyYWRpZW50VW5pdHM9InVzZXJTcGFjZU9uVXNlIiBncmFkaWVudFRyYW5zZm9ybT0idHJhbnNsYXRlKDAuODgwMzk3IDE5LjQ1NzQpIHJvdGF0ZSgtNDYuOTU3OSkgc2NhbGUoMTkuNDcyMSAyNi43ODQpIj4KPHN0b3Agc3RvcC1jb2xvcj0iIzAwQkJGRiIvPgo8c3RvcCBvZmZzZXQ9IjEiIHN0b3AtY29sb3I9IiMwMDhCRkYiLz4KPC9yYWRpYWxHcmFkaWVudD4KPGNsaXBQYXRoIGlkPSJjbGlwMF8zODYwXzE3Nzg3Ij4KPHJlY3Qgd2lkdGg9IjE2IiBoZWlnaHQ9IjE2IiBmaWxsPSJ3aGl0ZSIgdHJhbnNmb3JtPSJ0cmFuc2xhdGUoLTAuMDAwNDg4MjgxIDAuMDAxOTUzMTIpIi8+CjwvY2xpcFBhdGg+CjwvZGVmcz4KPC9zdmc+Cg==;" vertex="1" parent="1">
          <mxGeometry x="-120" y="295.5" width="74" height="74" as="geometry" />
        </mxCell>
        <mxCell id="7n4o7fXow-ZqI2_hz5NC-24" style="edgeStyle=orthogonalEdgeStyle;rounded=0;orthogonalLoop=1;jettySize=auto;html=1;" edge="1" parent="1" source="7n4o7fXow-ZqI2_hz5NC-22" target="7n4o7fXow-ZqI2_hz5NC-16">
          <mxGeometry relative="1" as="geometry" />
        </mxCell>
        <mxCell id="7n4o7fXow-ZqI2_hz5NC-22" value="Cloud Connetor" style="shape=image;verticalLabelPosition=bottom;verticalAlign=top;imageAspect=0;aspect=fixed;image=data:image/svg+xml,PHN2ZyB4bWxucz0iaHR0cDovL3d3dy53My5vcmcvMjAwMC9zdmciIGlkPSJjbG91ZGNvbm5lY3RvciIgdmlld0JveD0iMy45OTkyODQ1MDU4NDQxMTYgMy45OTk5OTk1MjMxNjI4NDIgNDguMDAwNzE3MTYzMDg1OTQgNDgiIHdpZHRoPSI0OC4wMDA3MTcxNjMwODU5NCIgaGVpZ2h0PSI0OCI+PGRlZnM+PHN0eWxlPi5jbHMtMXtmaWxsOiM3ZjdmN2Y7fTwvc3R5bGU+PC9kZWZzPjx0aXRsZT5jbG91ZGNvbm5lY3RvcjwvdGl0bGU+PHBhdGggY2xhc3M9ImNscy0xIiBkPSJNMTkuMTA5LDdhNi40NTUsNi40NTUsMCwwLDEsNS44NjQsNC4wMzNsMS4zMDcsMy4yOUwyOS4zMSwxMi41YTMuOTIyLDMuOTIyLDAsMCwxLDIuMDQzLS41OTEsMy45ODgsMy45ODgsMCwwLDEsMy45MTQsMy4yNDlsLjI4OCwxLjUyOSwxLjQxNS42NDZhNS4zNTEsNS4zNTEsMCwwLDEsMyw0LjY3SDQzYTguMzU1LDguMzU1LDAsMCwwLTQuNzg1LTcuNEE2Ljk0MSw2Ljk0MSwwLDAsMCwyNy43NjIsOS45MjgsOS40NTIsOS40NTIsMCwwLDAsMTkuMDU1LDRDOC43MDUsNC41NDgsOS44LDE0LjYyMSw5LjgsMTQuNjIxQTguMzg3LDguMzg3LDAsMCwwLDEyLjQxLDMwLjk4NkgxOXYtM0gxMi40MWE1LjM4Nyw1LjM4NywwLDAsMS0xLjY3NS0xMC41MTVsMi4zMDgtLjc1OUwxMi43ODEsMTQuM2E4LjEsOC4xLDAsMCwxLDEuNS01LjI4NEE2LjUsNi41LDAsMCwxLDE5LjEwOSw3WiIvPjxwYXRoIGNsYXNzPSJjbHMtMSIgZD0iTTUyLDUwLjEyNSw1MC4zMTIsNTJsLTUuOTA2LTUuODEyTDQ0LjU5NCw0NmwtMS43ODIsMS42ODhhNy43ODMsNy43ODMsMCwwLDEtNS4zNDMsMi4zNDMsNy4wNTIsNy4wNTIsMCwwLDEtNS4yNS0yLjM0M0wyOS43ODEsNDUuMjVsLTQuMzEyLTQuMTI1YTcuNjY3LDcuNjY3LDAsMCwxLTIuNDM4LTUuNTc4LDcuMzgsNy4zOCwwLDAsMSwyLjQzOC01LjQ4NWwxLjEyNS0xLjIxOEwxOSwyMS4wNjIsMjAuOTY5LDE5bDcuNTkzLDcuNzgxLDEuMjE5LTEuMjE5YTYuMTYxLDYuMTYxLDAsMCwxLDIuNDM4LTEuNzgxLDcuNzQ2LDcuNzQ2LDAsMCwxLDIuOTA2LS41NjIsOC4xLDguMSwwLDAsMSw1LjYyNSwyLjM0M2w0LjIxOSw0LjV2LjA5NGwyLjQzNywyLjQzOGE3LjE1Nyw3LjE1NywwLDAsMSwwLDEwLjU5NGwtMS4xMjUsMS4xMjRaTTI2LjAzMSwzNS41YTQuNzU1LDQuNzU1LDAsMCwwLDEuNSwzLjQ2OWwyLjE1NywyLjE1Nkw0MC43NSwzMC4wNjIsMzguNSwyNy42MjVhNC42LDQuNiwwLDAsMC0zLjM3NS0xLjQwNiwzLjg2NSwzLjg2NSwwLDAsMC0zLjA5NCwxLjMxMmwtNC40MDYsNC42ODhBNC4wODIsNC4wODIsMCwwLDAsMjYuMDMxLDM1LjVabTE5LjMxMyw1LjUzMWEzLjkxMywzLjkxMywwLDAsMCwxLjQwNi0zLjA5Myw0LjM1MSw0LjM1MSwwLDAsMC0xLjMxMi0zLjE4OGwtMi42MjYtMi41MzFMMzEuOTM4LDQzLjE4OGwyLjM0MywyLjM0M2guMDk0bC4wOTQuMDk0YTMuODE0LDMuODE0LDAsMCwwLDMsMS40MDYsNC40NzQsNC40NzQsMCwwLDAsMy4xODctMS41WiIvPjwvc3ZnPg==;" vertex="1" parent="1">
          <mxGeometry x="-854" y="317" width="48" height="48" as="geometry" />
        </mxCell>
        <mxCell id="7n4o7fXow-ZqI2_hz5NC-27" style="edgeStyle=orthogonalEdgeStyle;rounded=0;orthogonalLoop=1;jettySize=auto;html=1;entryX=0;entryY=0.5;entryDx=0;entryDy=0;" edge="1" parent="1" source="7n4o7fXow-ZqI2_hz5NC-26" target="7n4o7fXow-ZqI2_hz5NC-1">
          <mxGeometry relative="1" as="geometry" />
        </mxCell>
        <mxCell id="7n4o7fXow-ZqI2_hz5NC-42" style="edgeStyle=orthogonalEdgeStyle;rounded=0;orthogonalLoop=1;jettySize=auto;html=1;" edge="1" parent="1">
          <mxGeometry relative="1" as="geometry">
            <mxPoint x="-440" y="341.29999999999995" as="sourcePoint" />
            <mxPoint x="-524" y="342" as="targetPoint" />
          </mxGeometry>
        </mxCell>
        <mxCell id="7n4o7fXow-ZqI2_hz5NC-26" value="CAPM" style="shape=image;verticalLabelPosition=bottom;verticalAlign=top;imageAspect=0;aspect=fixed;image=data:image/svg+xml,PHN2ZyB4bWxucz0iaHR0cDovL3d3dy53My5vcmcvMjAwMC9zdmciIGlkPSJmaW9yaS1jbG91ZCIgdmlld0JveD0iMy45OTc4MDEwNjU0NDQ5NDYzIDguMjg2OTI2MjY5NTMxMjUgNDcuOTkzMjA2MDI0MTY5OTIgMzUuOTk1MTE3MTg3NSIgd2lkdGg9IjQ3Ljk5MzIwNjAyNDE2OTkyIiBoZWlnaHQ9IjM1Ljk5NTExNzE4NzUiPjxkZWZzPjxzdHlsZT4uY2xzLTF7ZmlsbDojMGE2ZWQxO30uY2xzLTJ7ZmlsbDojMDUzYjcwO308L3N0eWxlPjwvZGVmcz48dGl0bGU+ZmlvcmktY2xvdWQ8L3RpdGxlPjxwYXRoIGNsYXNzPSJjbHMtMSIgZD0iTTM1Ljc4OSwzOC42N2E3LjM1Niw3LjM1NiwwLDAsMS03LjM2LTcuMzM3YzAtLjA1NiwwLS4xMSwwLS4xNjRhNy4zNSw3LjM1LDAsMCwxLS45NDUtMTQuNDA3LDYuNzIyLDYuNzIyLDAsMCwxLS4wOTItMS4xMTMsNy4zNTcsNy4zNTcsMCwwLDEsNy4zMzQtNy4zNjIsNy4yMzYsNy4yMzYsMCwwLDEsNS45OSwzLjEyOSw2LjksNi45LDAsMCwxLDMuMTI4LS43NjMsNy4zNTcsNy4zNTcsMCwwLDEsNy4zNiw3LjMzNiw3LjA1Nyw3LjA1NywwLDAsMS0xLjU3OCw0LjQzOCw3LjIxNiw3LjIxNiwwLDAsMSwyLjM2NSw1LjMxQTcuMzU3LDcuMzU3LDAsMCwxLDQ0LjY1OSwzNS4xYTYuNTg0LDYuNTg0LDAsMCwxLTIuNDMyLS40NzJBNy4xNjcsNy4xNjcsMCwwLDEsMzUuNzg5LDM4LjY3Wk0zMi40OTUsMjcuNjMxLDMxLjcxNCwzMGE0LjE1LDQuMTUsMCwwLDAsNC4wNyw1LjY2OCw0LjI2Niw0LjI2NiwwLDAsMCw0LjEzOS0zLjVsLjQ2Mi0yLjIxOSwxLjg1OSwxLjI5MWE0LjIsNC4yLDAsMCwwLDYuNzUtMy41LDQuMzExLDQuMzExLDAsMCwwLTIuMzkxLTMuOGwtMi4xMjktMS4xLDEuOTE5LTEuNDMzYTQuMjc1LDQuMjc1LDAsMCwwLDEuODE0LTMuNDE2LDQuMjU5LDQuMjU5LDAsMCwwLTcuMDc4LTMuMjc1bC0xLjYxMSwxLjM0OEwzOC43NjcsMTQuMWE0LjMsNC4zLDAsMCwwLTQuMDMzLTIuODE1LDQuMzU0LDQuMzU0LDAsMCwwLTQuMzQsNC4zNTYsNC4yNSw0LjI1LDAsMCwwLC40MTQsMS43NzlsMS4wMTEsMi4yMS0yLjY2My0uMWE0LjM1NCw0LjM1NCwwLDAsMC00LjE2Nyw0LjM1M2MuMjM0LDQuMSwzLjUsNC4zMzksNC4zNjQsNC4zNDRBMTkuNzQzLDE5Ljc0MywwLDAsMCwzMi40OTUsMjcuNjMxWiIvPjxwYXRoIGNsYXNzPSJjbHMtMiIgZD0iTTQ4LjQsMzYuNmE3LjQ3NSw3LjQ3NSwwLDAsMS02LjksNC42ODVIMTQuNTc0YTcuNSw3LjUsMCwwLDEtNy4yMTktNSw3LjI0Nyw3LjI0NywwLDAsMSw0LjY2NS05LjE2NmwyLjI3OS0uNzY3LS4yODctMS41YTcuNiw3LjYsMCwwLDEtLjEyNC0yLjA3NCwxMC41NCwxMC41NCwwLDAsMSwyLjE4OS01LjgyOSw3LjM3Myw3LjM3MywwLDAsMSw2LjQtMi44MjUsNy41NzYsNy41NzYsMCwwLDEsMi43NjguNiw5LjU2NCw5LjU2NCwwLDAsMSwuNzQ4LTIuOTU2LDEyLjgxNiwxMi44MTYsMCwwLDAtMy41ODUtLjQ5MmMtMTIuNDEsMC0xMS4zMiwxMi45OS0xMS4zMiwxMi45OWExMC4yNTksMTAuMjU5LDAsMCwwLDMuMiwyMC4wMTZINDEuNDkxYTEwLjUsMTAuNSwwLDAsMCwxMC40OS0xMC40MDdBOS42MTksOS42MTksMCwwLDEsNDguNCwzNi42WiIvPjwvc3ZnPg==;" vertex="1" parent="1">
          <mxGeometry x="-440" y="311" width="78" height="58.5" as="geometry" />
        </mxCell>
        <mxCell id="7n4o7fXow-ZqI2_hz5NC-48" value="SAP     ECC" style="shape=image;verticalLabelPosition=bottom;verticalAlign=top;imageAspect=0;aspect=fixed;image=https://digitalmarketplace-sapcpprd.s3.eu-central-1.amazonaws.com/yBzP_cZdSDnKeMsvTJs2DU40hszgnZLcwk9kwY2It3HjIBITLMANAoBlJomI6iHC.svg;" vertex="1" parent="1">
          <mxGeometry x="-800" y="662.5" width="60" height="60" as="geometry" />
        </mxCell>
        <mxCell id="7n4o7fXow-ZqI2_hz5NC-53" value="Client" style="points=[[0.35,0,0],[0.98,0.51,0],[1,0.71,0],[0.67,1,0],[0,0.795,0],[0,0.65,0]];verticalLabelPosition=bottom;sketch=0;html=1;verticalAlign=top;aspect=fixed;align=center;pointerEvents=1;shape=mxgraph.cisco19.user;fillColor=#005073;strokeColor=none;" vertex="1" parent="1">
          <mxGeometry x="410" y="662.5" width="50" height="50" as="geometry" />
        </mxCell>
      </root>
    </mxGraphModel>
  </diagram>
</mxfile>
